<svg xmlns="http://www.w3.org/2000/svg" width="19" height="19" viewBox="0 0 19 19">
  <g id="Group_5" data-name="Group 5" transform="translate(-449 -255)">
    <g id="Ellipse_2" data-name="Ellipse 2" transform="translate(449 255)" fill="none" stroke="#fae9c4" stroke-width="0.2">
      <circle cx="9.5" cy="9.5" r="9.5" stroke="none"/>
      <circle cx="9.5" cy="9.5" r="9.4" fill="none"/>
    </g>
    <g id="next" transform="translate(463.938 150.715) rotate(90)">
      <path id="Path_8" data-name="Path 8" d="M116.6,5.131,112.932.089a.18.18,0,0,0-.311,0,.386.386,0,0,0,0,.428l3.508,4.827-3.508,4.827a.386.386,0,0,0,0,.428.2.2,0,0,0,.155.09.191.191,0,0,0,.155-.09l3.664-5.042A.385.385,0,0,0,116.6,5.131Z" transform="translate(0)" fill="none" stroke="#fae9c4" stroke-width="1"/>
    </g>
  </g>
</svg>
