<svg xmlns="http://www.w3.org/2000/svg" width="1349" height="100.94" viewBox="0 0 1349 100.94">
  <g id="Group_7" data-name="Group 7" transform="translate(1126 -2160.776)">
    <path id="Union_4" data-name="Union 4" d="M885.7,100.427H0V0H586.545s27.874-1.153,36.684,0,17.089,3.236,33.323,13.162,22.122,24.362,12.881,38.363-14.425,25.229-8.18,31.092,9.942,6.628,12.364,6.628h3.652q.74,0,1.529-.01c2.425-.106,6.039-1.123,11.891-6.617,6.246-5.864,1.061-17.091-8.18-31.092s-3.353-28.438,12.882-38.363S719.906,1.153,728.715,0,765.4,0,765.4,0H1349V100.427Z" transform="translate(-1126 2161.289)" fill="#fff"/>
  </g>
</svg>
