<svg xmlns="http://www.w3.org/2000/svg" width="61.591" height="38.197" viewBox="0 0 61.591 38.197">
  <g id="Group_9" data-name="Group 9" transform="translate(-374.467 -363)">
    <g id="Group_2" data-name="Group 2">
      <g id="Group_1" data-name="Group 1" transform="translate(374.467 363)">
        <path id="Union_1" data-name="Union 1" d="M13.771,33.848c-7.574-1.435-11.057-9-12.5-15.864S.007,0,.007,0H24.359V33.848a11.46,11.46,0,0,1-4.476.638A33.008,33.008,0,0,1,13.771,33.848Zm10.587,0V0H43.015s.139,11.12-.967,17.984S36.45,30.875,32.726,32.7a14.674,14.674,0,0,1-6.281,1.272A16.081,16.081,0,0,1,24.359,33.848Z" transform="translate(8.753)" fill="#4b3f35"/>
        <path id="Path_3" data-name="Path 3" d="M374.516,423.218h61.542s-3.011,4.115-6.4,4.582-47.051,0-47.051,0-4.611.117-6.587-2.221S374.516,423.218,374.516,423.218Z" transform="translate(-374.467 -389.811)" fill="#4b3f35"/>
        <path id="Exclusion_1" data-name="Exclusion 1" d="M5.568,16.722c-2.558,0-4.118-.417-4.908-1.314-.881-1-.7-2.458-.484-4.147a19.452,19.452,0,0,0,.2-2.44A17.094,17.094,0,0,1,1.07,2.8,4.217,4.217,0,0,1,2.613.773,5.172,5.172,0,0,1,5.56,0l.2,0A7.9,7.9,0,0,1,11.809,2.82a8.808,8.808,0,0,1,1.574,2.8,9.748,9.748,0,0,1,.536,3.2,8.554,8.554,0,0,1-1.983,5.585,6.28,6.28,0,0,1-4.787,2.313c-.115,0-.227,0-.49-.02C6.278,16.714,5.912,16.722,5.568,16.722ZM6.483,4.513A1.968,1.968,0,0,0,4.437,5.827a8.27,8.27,0,0,0-.315,2.831A9.419,9.419,0,0,1,4.03,9.8c-.1.8-.183,1.494.233,1.963a2.924,2.924,0,0,0,2.224.6c.156,0,.323,0,.5-.011.13.008.178.009.223.009,1.7,0,3.085-1.665,3.085-3.711A3.891,3.891,0,0,0,6.572,4.514Z" transform="translate(47.07 6.41)" fill="#4b3f35"/>
      </g>
      <text id="Cafo" transform="translate(390 384)" fill="#fff" font-size="14" font-family="Pacifico-Regular, Pacifico"><tspan x="0" y="0">Cafo</tspan></text>
    </g>
  </g>
</svg>
